<?xml version="1.0" encoding="UTF-8"?>
<svg xmlns="http://www.w3.org/2000/svg" viewBox="0 0 504 504">
  <g id="a" data-name="Capa 1"/>
  <g id="b" data-name="Capa 2">
    <g id="c" data-name="Capa 1">
      <circle cx="252" cy="252" r="252" fill="#636"/>
      <path d="M252,220.5h126v189H126V220.5c0-69.58,56.42-126,126-126,58.7,0,112,40.18,126,94.5h-36.89c-12.98-36.71-47.98-63-89.11-63-52.18,0-94.5,42.31-94.5,94.5,0,24.22,9.1,46.27,24.12,63,2.31,2.62,4.76,5.08,7.38,7.38,16.73,15.01,38.78,24.12,63,24.12,41.12,0,76.12-26.29,89.11-63h-89.11v-31.5Z" fill="#fff"/>
    </g>
  </g>
</svg>